<svg xmlns="http://www.w3.org/2000/svg" xmlns:xlink="http://www.w3.org/1999/xlink" width="600" height="400" viewBox="0 0 2400 1600">
<defs>
  <clipPath id="clip870">
    <rect x="0" y="0" width="2400" height="1600"></rect>
  </clipPath>
</defs>
<path clip-path="url(#clip870)" d="
M0 1600 L2400 1600 L2400 0 L0 0  Z
  " fill="#ffffff" fill-rule="evenodd" fill-opacity="1"></path>
<defs>
  <clipPath id="clip871">
    <rect x="480" y="0" width="1681" height="1600"></rect>
  </clipPath>
</defs>
<path clip-path="url(#clip870)" d="
M246.598 1486.45 L2352.76 1486.45 L2352.76 47.2441 L246.598 47.2441  Z
  " fill="#ffffff" fill-rule="evenodd" fill-opacity="1"></path>
<defs>
  <clipPath id="clip872">
    <rect x="246" y="47" width="2107" height="1440"></rect>
  </clipPath>
</defs>
<polyline clip-path="url(#clip872)" style="stroke:#000000; stroke-linecap:butt; stroke-linejoin:round; stroke-width:2; stroke-opacity:0.1; fill:none" points="
  306.206,1486.45 306.206,47.2441 
  "></polyline>
<polyline clip-path="url(#clip872)" style="stroke:#000000; stroke-linecap:butt; stroke-linejoin:round; stroke-width:2; stroke-opacity:0.1; fill:none" points="
  802.941,1486.45 802.941,47.2441 
  "></polyline>
<polyline clip-path="url(#clip872)" style="stroke:#000000; stroke-linecap:butt; stroke-linejoin:round; stroke-width:2; stroke-opacity:0.1; fill:none" points="
  1299.68,1486.45 1299.68,47.2441 
  "></polyline>
<polyline clip-path="url(#clip872)" style="stroke:#000000; stroke-linecap:butt; stroke-linejoin:round; stroke-width:2; stroke-opacity:0.1; fill:none" points="
  1796.41,1486.45 1796.41,47.2441 
  "></polyline>
<polyline clip-path="url(#clip872)" style="stroke:#000000; stroke-linecap:butt; stroke-linejoin:round; stroke-width:2; stroke-opacity:0.1; fill:none" points="
  2293.15,1486.45 2293.15,47.2441 
  "></polyline>
<polyline clip-path="url(#clip870)" style="stroke:#000000; stroke-linecap:butt; stroke-linejoin:round; stroke-width:4; stroke-opacity:1; fill:none" points="
  246.598,1486.45 2352.76,1486.45 
  "></polyline>
<polyline clip-path="url(#clip870)" style="stroke:#000000; stroke-linecap:butt; stroke-linejoin:round; stroke-width:4; stroke-opacity:1; fill:none" points="
  306.206,1486.45 306.206,1467.55 
  "></polyline>
<polyline clip-path="url(#clip870)" style="stroke:#000000; stroke-linecap:butt; stroke-linejoin:round; stroke-width:4; stroke-opacity:1; fill:none" points="
  802.941,1486.45 802.941,1467.55 
  "></polyline>
<polyline clip-path="url(#clip870)" style="stroke:#000000; stroke-linecap:butt; stroke-linejoin:round; stroke-width:4; stroke-opacity:1; fill:none" points="
  1299.68,1486.45 1299.68,1467.55 
  "></polyline>
<polyline clip-path="url(#clip870)" style="stroke:#000000; stroke-linecap:butt; stroke-linejoin:round; stroke-width:4; stroke-opacity:1; fill:none" points="
  1796.41,1486.45 1796.41,1467.55 
  "></polyline>
<polyline clip-path="url(#clip870)" style="stroke:#000000; stroke-linecap:butt; stroke-linejoin:round; stroke-width:4; stroke-opacity:1; fill:none" points="
  2293.15,1486.45 2293.15,1467.55 
  "></polyline>
<path clip-path="url(#clip870)" d="M268.509 1517.37 Q264.898 1517.37 263.07 1520.93 Q261.264 1524.47 261.264 1531.6 Q261.264 1538.71 263.07 1542.27 Q264.898 1545.82 268.509 1545.82 Q272.144 1545.82 273.949 1542.27 Q275.778 1538.71 275.778 1531.6 Q275.778 1524.47 273.949 1520.93 Q272.144 1517.37 268.509 1517.37 M268.509 1513.66 Q274.32 1513.66 277.375 1518.27 Q280.454 1522.85 280.454 1531.6 Q280.454 1540.33 277.375 1544.94 Q274.32 1549.52 268.509 1549.52 Q262.699 1549.52 259.621 1544.94 Q256.565 1540.33 256.565 1531.6 Q256.565 1522.85 259.621 1518.27 Q262.699 1513.66 268.509 1513.66 Z" fill="#000000" fill-rule="evenodd" fill-opacity="1"></path><path clip-path="url(#clip870)" d="M288.671 1542.97 L293.556 1542.97 L293.556 1548.85 L288.671 1548.85 L288.671 1542.97 Z" fill="#000000" fill-rule="evenodd" fill-opacity="1"></path><path clip-path="url(#clip870)" d="M313.741 1517.37 Q310.13 1517.37 308.301 1520.93 Q306.495 1524.47 306.495 1531.6 Q306.495 1538.71 308.301 1542.27 Q310.13 1545.82 313.741 1545.82 Q317.375 1545.82 319.18 1542.27 Q321.009 1538.71 321.009 1531.6 Q321.009 1524.47 319.18 1520.93 Q317.375 1517.37 313.741 1517.37 M313.741 1513.66 Q319.551 1513.66 322.606 1518.27 Q325.685 1522.85 325.685 1531.6 Q325.685 1540.33 322.606 1544.94 Q319.551 1549.52 313.741 1549.52 Q307.931 1549.52 304.852 1544.94 Q301.796 1540.33 301.796 1531.6 Q301.796 1522.85 304.852 1518.27 Q307.931 1513.66 313.741 1513.66 Z" fill="#000000" fill-rule="evenodd" fill-opacity="1"></path><path clip-path="url(#clip870)" d="M343.903 1517.37 Q340.291 1517.37 338.463 1520.93 Q336.657 1524.47 336.657 1531.6 Q336.657 1538.71 338.463 1542.27 Q340.291 1545.82 343.903 1545.82 Q347.537 1545.82 349.342 1542.27 Q351.171 1538.71 351.171 1531.6 Q351.171 1524.47 349.342 1520.93 Q347.537 1517.37 343.903 1517.37 M343.903 1513.66 Q349.713 1513.66 352.768 1518.27 Q355.847 1522.85 355.847 1531.6 Q355.847 1540.33 352.768 1544.94 Q349.713 1549.52 343.903 1549.52 Q338.092 1549.52 335.014 1544.94 Q331.958 1540.33 331.958 1531.6 Q331.958 1522.85 335.014 1518.27 Q338.092 1513.66 343.903 1513.66 Z" fill="#000000" fill-rule="evenodd" fill-opacity="1"></path><path clip-path="url(#clip870)" d="M765.743 1517.37 Q762.131 1517.37 760.303 1520.93 Q758.497 1524.47 758.497 1531.6 Q758.497 1538.71 760.303 1542.27 Q762.131 1545.82 765.743 1545.82 Q769.377 1545.82 771.182 1542.27 Q773.011 1538.71 773.011 1531.6 Q773.011 1524.47 771.182 1520.93 Q769.377 1517.37 765.743 1517.37 M765.743 1513.66 Q771.553 1513.66 774.608 1518.27 Q777.687 1522.85 777.687 1531.6 Q777.687 1540.33 774.608 1544.94 Q771.553 1549.52 765.743 1549.52 Q759.932 1549.52 756.854 1544.94 Q753.798 1540.33 753.798 1531.6 Q753.798 1522.85 756.854 1518.27 Q759.932 1513.66 765.743 1513.66 Z" fill="#000000" fill-rule="evenodd" fill-opacity="1"></path><path clip-path="url(#clip870)" d="M785.904 1542.97 L790.789 1542.97 L790.789 1548.85 L785.904 1548.85 L785.904 1542.97 Z" fill="#000000" fill-rule="evenodd" fill-opacity="1"></path><path clip-path="url(#clip870)" d="M805.002 1544.91 L821.321 1544.91 L821.321 1548.85 L799.377 1548.85 L799.377 1544.91 Q802.039 1542.16 806.622 1537.53 Q811.228 1532.88 812.409 1531.53 Q814.654 1529.01 815.534 1527.27 Q816.437 1525.51 816.437 1523.82 Q816.437 1521.07 814.492 1519.33 Q812.571 1517.6 809.469 1517.6 Q807.27 1517.6 804.816 1518.36 Q802.386 1519.13 799.608 1520.68 L799.608 1515.95 Q802.432 1514.82 804.886 1514.24 Q807.34 1513.66 809.377 1513.66 Q814.747 1513.66 817.941 1516.35 Q821.136 1519.03 821.136 1523.52 Q821.136 1525.65 820.326 1527.57 Q819.539 1529.47 817.432 1532.07 Q816.853 1532.74 813.752 1535.95 Q810.65 1539.15 805.002 1544.91 Z" fill="#000000" fill-rule="evenodd" fill-opacity="1"></path><path clip-path="url(#clip870)" d="M831.182 1514.29 L849.538 1514.29 L849.538 1518.22 L835.464 1518.22 L835.464 1526.7 Q836.483 1526.35 837.501 1526.19 Q838.52 1526 839.538 1526 Q845.325 1526 848.705 1529.17 Q852.085 1532.34 852.085 1537.76 Q852.085 1543.34 848.612 1546.44 Q845.14 1549.52 838.821 1549.52 Q836.645 1549.52 834.376 1549.15 Q832.131 1548.78 829.724 1548.04 L829.724 1543.34 Q831.807 1544.47 834.029 1545.03 Q836.251 1545.58 838.728 1545.58 Q842.733 1545.58 845.071 1543.48 Q847.409 1541.37 847.409 1537.76 Q847.409 1534.15 845.071 1532.04 Q842.733 1529.94 838.728 1529.94 Q836.853 1529.94 834.978 1530.35 Q833.126 1530.77 831.182 1531.65 L831.182 1514.29 Z" fill="#000000" fill-rule="evenodd" fill-opacity="1"></path><path clip-path="url(#clip870)" d="M1261.98 1517.37 Q1258.37 1517.37 1256.54 1520.93 Q1254.73 1524.47 1254.73 1531.6 Q1254.73 1538.71 1256.54 1542.27 Q1258.37 1545.82 1261.98 1545.82 Q1265.61 1545.82 1267.42 1542.27 Q1269.25 1538.71 1269.25 1531.6 Q1269.25 1524.47 1267.42 1520.93 Q1265.61 1517.37 1261.98 1517.37 M1261.98 1513.66 Q1267.79 1513.66 1270.85 1518.27 Q1273.92 1522.85 1273.92 1531.6 Q1273.92 1540.33 1270.85 1544.94 Q1267.79 1549.52 1261.98 1549.52 Q1256.17 1549.52 1253.09 1544.94 Q1250.04 1540.33 1250.04 1531.6 Q1250.04 1522.85 1253.09 1518.27 Q1256.17 1513.66 1261.98 1513.66 Z" fill="#000000" fill-rule="evenodd" fill-opacity="1"></path><path clip-path="url(#clip870)" d="M1282.14 1542.97 L1287.03 1542.97 L1287.03 1548.85 L1282.14 1548.85 L1282.14 1542.97 Z" fill="#000000" fill-rule="evenodd" fill-opacity="1"></path><path clip-path="url(#clip870)" d="M1297.26 1514.29 L1315.61 1514.29 L1315.61 1518.22 L1301.54 1518.22 L1301.54 1526.7 Q1302.56 1526.35 1303.58 1526.19 Q1304.6 1526 1305.61 1526 Q1311.4 1526 1314.78 1529.17 Q1318.16 1532.34 1318.16 1537.76 Q1318.16 1543.34 1314.69 1546.44 Q1311.22 1549.52 1304.9 1549.52 Q1302.72 1549.52 1300.45 1549.15 Q1298.21 1548.78 1295.8 1548.04 L1295.8 1543.34 Q1297.88 1544.47 1300.11 1545.03 Q1302.33 1545.58 1304.8 1545.58 Q1308.81 1545.58 1311.15 1543.48 Q1313.48 1541.37 1313.48 1537.76 Q1313.48 1534.15 1311.15 1532.04 Q1308.81 1529.94 1304.8 1529.94 Q1302.93 1529.94 1301.05 1530.35 Q1299.2 1530.77 1297.26 1531.65 L1297.26 1514.29 Z" fill="#000000" fill-rule="evenodd" fill-opacity="1"></path><path clip-path="url(#clip870)" d="M1337.37 1517.37 Q1333.76 1517.37 1331.93 1520.93 Q1330.13 1524.47 1330.13 1531.6 Q1330.13 1538.71 1331.93 1542.27 Q1333.76 1545.82 1337.37 1545.82 Q1341.01 1545.82 1342.81 1542.27 Q1344.64 1538.71 1344.64 1531.6 Q1344.64 1524.47 1342.81 1520.93 Q1341.01 1517.37 1337.37 1517.37 M1337.37 1513.66 Q1343.18 1513.66 1346.24 1518.27 Q1349.32 1522.85 1349.32 1531.6 Q1349.32 1540.33 1346.24 1544.94 Q1343.18 1549.52 1337.37 1549.52 Q1331.56 1549.52 1328.48 1544.94 Q1325.43 1540.33 1325.43 1531.6 Q1325.43 1522.85 1328.48 1518.27 Q1331.56 1513.66 1337.37 1513.66 Z" fill="#000000" fill-rule="evenodd" fill-opacity="1"></path><path clip-path="url(#clip870)" d="M1759.21 1517.37 Q1755.6 1517.37 1753.77 1520.93 Q1751.97 1524.47 1751.97 1531.6 Q1751.97 1538.71 1753.77 1542.27 Q1755.6 1545.82 1759.21 1545.82 Q1762.85 1545.82 1764.65 1542.27 Q1766.48 1538.71 1766.48 1531.6 Q1766.48 1524.47 1764.65 1520.93 Q1762.85 1517.37 1759.21 1517.37 M1759.21 1513.66 Q1765.02 1513.66 1768.08 1518.27 Q1771.16 1522.85 1771.16 1531.6 Q1771.16 1540.33 1768.08 1544.94 Q1765.02 1549.52 1759.21 1549.52 Q1753.4 1549.52 1750.32 1544.94 Q1747.27 1540.33 1747.27 1531.6 Q1747.27 1522.85 1750.32 1518.27 Q1753.4 1513.66 1759.21 1513.66 Z" fill="#000000" fill-rule="evenodd" fill-opacity="1"></path><path clip-path="url(#clip870)" d="M1779.38 1542.97 L1784.26 1542.97 L1784.26 1548.85 L1779.38 1548.85 L1779.38 1542.97 Z" fill="#000000" fill-rule="evenodd" fill-opacity="1"></path><path clip-path="url(#clip870)" d="M1793.26 1514.29 L1815.49 1514.29 L1815.49 1516.28 L1802.94 1548.85 L1798.06 1548.85 L1809.86 1518.22 L1793.26 1518.22 L1793.26 1514.29 Z" fill="#000000" fill-rule="evenodd" fill-opacity="1"></path><path clip-path="url(#clip870)" d="M1824.65 1514.29 L1843.01 1514.29 L1843.01 1518.22 L1828.94 1518.22 L1828.94 1526.7 Q1829.95 1526.35 1830.97 1526.19 Q1831.99 1526 1833.01 1526 Q1838.8 1526 1842.18 1529.17 Q1845.56 1532.34 1845.56 1537.76 Q1845.56 1543.34 1842.08 1546.44 Q1838.61 1549.52 1832.29 1549.52 Q1830.12 1549.52 1827.85 1549.15 Q1825.6 1548.78 1823.19 1548.04 L1823.19 1543.34 Q1825.28 1544.47 1827.5 1545.03 Q1829.72 1545.58 1832.2 1545.58 Q1836.2 1545.58 1838.54 1543.48 Q1840.88 1541.37 1840.88 1537.76 Q1840.88 1534.15 1838.54 1532.04 Q1836.2 1529.94 1832.2 1529.94 Q1830.32 1529.94 1828.45 1530.35 Q1826.6 1530.77 1824.65 1531.65 L1824.65 1514.29 Z" fill="#000000" fill-rule="evenodd" fill-opacity="1"></path><path clip-path="url(#clip870)" d="M2245.22 1544.91 L2252.86 1544.91 L2252.86 1518.55 L2244.55 1520.21 L2244.55 1515.95 L2252.81 1514.29 L2257.49 1514.29 L2257.49 1544.91 L2265.13 1544.91 L2265.13 1548.85 L2245.22 1548.85 L2245.22 1544.91 Z" fill="#000000" fill-rule="evenodd" fill-opacity="1"></path><path clip-path="url(#clip870)" d="M2274.57 1542.97 L2279.46 1542.97 L2279.46 1548.85 L2274.57 1548.85 L2274.57 1542.97 Z" fill="#000000" fill-rule="evenodd" fill-opacity="1"></path><path clip-path="url(#clip870)" d="M2299.64 1517.37 Q2296.03 1517.37 2294.2 1520.93 Q2292.4 1524.47 2292.4 1531.6 Q2292.4 1538.71 2294.2 1542.27 Q2296.03 1545.82 2299.64 1545.82 Q2303.27 1545.82 2305.08 1542.27 Q2306.91 1538.71 2306.91 1531.6 Q2306.91 1524.47 2305.08 1520.93 Q2303.27 1517.37 2299.64 1517.37 M2299.64 1513.66 Q2305.45 1513.66 2308.51 1518.27 Q2311.59 1522.85 2311.59 1531.6 Q2311.59 1540.33 2308.51 1544.94 Q2305.45 1549.52 2299.64 1549.52 Q2293.83 1549.52 2290.75 1544.94 Q2287.7 1540.33 2287.7 1531.6 Q2287.7 1522.85 2290.75 1518.27 Q2293.83 1513.66 2299.64 1513.66 Z" fill="#000000" fill-rule="evenodd" fill-opacity="1"></path><path clip-path="url(#clip870)" d="M2329.8 1517.37 Q2326.19 1517.37 2324.36 1520.93 Q2322.56 1524.47 2322.56 1531.6 Q2322.56 1538.71 2324.36 1542.27 Q2326.19 1545.82 2329.8 1545.82 Q2333.44 1545.82 2335.24 1542.27 Q2337.07 1538.71 2337.07 1531.6 Q2337.07 1524.47 2335.24 1520.93 Q2333.44 1517.37 2329.8 1517.37 M2329.8 1513.66 Q2335.61 1513.66 2338.67 1518.27 Q2341.75 1522.85 2341.75 1531.6 Q2341.75 1540.33 2338.67 1544.94 Q2335.61 1549.52 2329.8 1549.52 Q2323.99 1549.52 2320.91 1544.94 Q2317.86 1540.33 2317.86 1531.6 Q2317.86 1522.85 2320.91 1518.27 Q2323.99 1513.66 2329.8 1513.66 Z" fill="#000000" fill-rule="evenodd" fill-opacity="1"></path><polyline clip-path="url(#clip872)" style="stroke:#000000; stroke-linecap:butt; stroke-linejoin:round; stroke-width:2; stroke-opacity:0.1; fill:none" points="
  246.598,1334.83 2352.76,1334.83 
  "></polyline>
<polyline clip-path="url(#clip872)" style="stroke:#000000; stroke-linecap:butt; stroke-linejoin:round; stroke-width:2; stroke-opacity:0.1; fill:none" points="
  246.598,1141.05 2352.76,1141.05 
  "></polyline>
<polyline clip-path="url(#clip872)" style="stroke:#000000; stroke-linecap:butt; stroke-linejoin:round; stroke-width:2; stroke-opacity:0.1; fill:none" points="
  246.598,947.267 2352.76,947.267 
  "></polyline>
<polyline clip-path="url(#clip872)" style="stroke:#000000; stroke-linecap:butt; stroke-linejoin:round; stroke-width:2; stroke-opacity:0.1; fill:none" points="
  246.598,753.484 2352.76,753.484 
  "></polyline>
<polyline clip-path="url(#clip872)" style="stroke:#000000; stroke-linecap:butt; stroke-linejoin:round; stroke-width:2; stroke-opacity:0.1; fill:none" points="
  246.598,559.702 2352.76,559.702 
  "></polyline>
<polyline clip-path="url(#clip872)" style="stroke:#000000; stroke-linecap:butt; stroke-linejoin:round; stroke-width:2; stroke-opacity:0.1; fill:none" points="
  246.598,365.919 2352.76,365.919 
  "></polyline>
<polyline clip-path="url(#clip872)" style="stroke:#000000; stroke-linecap:butt; stroke-linejoin:round; stroke-width:2; stroke-opacity:0.1; fill:none" points="
  246.598,172.136 2352.76,172.136 
  "></polyline>
<polyline clip-path="url(#clip870)" style="stroke:#000000; stroke-linecap:butt; stroke-linejoin:round; stroke-width:4; stroke-opacity:1; fill:none" points="
  246.598,1486.45 246.598,47.2441 
  "></polyline>
<polyline clip-path="url(#clip870)" style="stroke:#000000; stroke-linecap:butt; stroke-linejoin:round; stroke-width:4; stroke-opacity:1; fill:none" points="
  246.598,1334.83 265.495,1334.83 
  "></polyline>
<polyline clip-path="url(#clip870)" style="stroke:#000000; stroke-linecap:butt; stroke-linejoin:round; stroke-width:4; stroke-opacity:1; fill:none" points="
  246.598,1141.05 265.495,1141.05 
  "></polyline>
<polyline clip-path="url(#clip870)" style="stroke:#000000; stroke-linecap:butt; stroke-linejoin:round; stroke-width:4; stroke-opacity:1; fill:none" points="
  246.598,947.267 265.495,947.267 
  "></polyline>
<polyline clip-path="url(#clip870)" style="stroke:#000000; stroke-linecap:butt; stroke-linejoin:round; stroke-width:4; stroke-opacity:1; fill:none" points="
  246.598,753.484 265.495,753.484 
  "></polyline>
<polyline clip-path="url(#clip870)" style="stroke:#000000; stroke-linecap:butt; stroke-linejoin:round; stroke-width:4; stroke-opacity:1; fill:none" points="
  246.598,559.702 265.495,559.702 
  "></polyline>
<polyline clip-path="url(#clip870)" style="stroke:#000000; stroke-linecap:butt; stroke-linejoin:round; stroke-width:4; stroke-opacity:1; fill:none" points="
  246.598,365.919 265.495,365.919 
  "></polyline>
<polyline clip-path="url(#clip870)" style="stroke:#000000; stroke-linecap:butt; stroke-linejoin:round; stroke-width:4; stroke-opacity:1; fill:none" points="
  246.598,172.136 265.495,172.136 
  "></polyline>
<path clip-path="url(#clip870)" d="M67.1032 1333.48 Q70.4596 1334.2 72.3346 1336.46 Q74.2327 1338.73 74.2327 1342.07 Q74.2327 1347.18 70.7142 1349.98 Q67.1957 1352.78 60.7143 1352.78 Q58.5384 1352.78 56.2236 1352.34 Q53.9319 1351.93 51.4782 1351.07 L51.4782 1346.56 Q53.4227 1347.69 55.7375 1348.27 Q58.0523 1348.85 60.5754 1348.85 Q64.9735 1348.85 67.2652 1347.11 Q69.58 1345.38 69.58 1342.07 Q69.58 1339.01 67.4272 1337.3 Q65.2976 1335.56 61.4782 1335.56 L57.4504 1335.56 L57.4504 1331.72 L61.6634 1331.72 Q65.1124 1331.72 66.9411 1330.35 Q68.7698 1328.97 68.7698 1326.37 Q68.7698 1323.71 66.8717 1322.3 Q64.9967 1320.86 61.4782 1320.86 Q59.5569 1320.86 57.3578 1321.28 Q55.1588 1321.7 52.5199 1322.58 L52.5199 1318.41 Q55.1819 1317.67 57.4967 1317.3 Q59.8347 1316.93 61.8948 1316.93 Q67.2189 1316.93 70.3207 1319.36 Q73.4226 1321.77 73.4226 1325.89 Q73.4226 1328.76 71.7791 1330.75 Q70.1355 1332.72 67.1032 1333.48 Z" fill="#000000" fill-rule="evenodd" fill-opacity="1"></path><path clip-path="url(#clip870)" d="M93.6771 1332.97 Q90.529 1332.97 88.6771 1335.12 Q86.8484 1337.28 86.8484 1341.03 Q86.8484 1344.75 88.6771 1346.93 Q90.529 1349.08 93.6771 1349.08 Q96.8252 1349.08 98.6539 1346.93 Q100.506 1344.75 100.506 1341.03 Q100.506 1337.28 98.6539 1335.12 Q96.8252 1332.97 93.6771 1332.97 M102.959 1318.32 L102.959 1322.58 Q101.2 1321.74 99.3946 1321.3 Q97.6122 1320.86 95.853 1320.86 Q91.2234 1320.86 88.7697 1323.99 Q86.3392 1327.11 85.9919 1333.43 Q87.3577 1331.42 89.4178 1330.35 Q91.478 1329.27 93.9549 1329.27 Q99.1632 1329.27 102.172 1332.44 Q105.205 1335.59 105.205 1341.03 Q105.205 1346.35 102.057 1349.57 Q98.9085 1352.78 93.6771 1352.78 Q87.6817 1352.78 84.5105 1348.2 Q81.3392 1343.59 81.3392 1334.87 Q81.3392 1326.67 85.2281 1321.81 Q89.1169 1316.93 95.6678 1316.93 Q97.4271 1316.93 99.2095 1317.28 Q101.015 1317.62 102.959 1318.32 Z" fill="#000000" fill-rule="evenodd" fill-opacity="1"></path><path clip-path="url(#clip870)" d="M113.26 1346.23 L118.145 1346.23 L118.145 1352.11 L113.26 1352.11 L113.26 1346.23 Z" fill="#000000" fill-rule="evenodd" fill-opacity="1"></path><path clip-path="url(#clip870)" d="M128.469 1351.4 L128.469 1347.14 Q130.228 1347.97 132.033 1348.41 Q133.839 1348.85 135.575 1348.85 Q140.205 1348.85 142.635 1345.75 Q145.089 1342.62 145.436 1336.28 Q144.093 1338.27 142.033 1339.34 Q139.973 1340.4 137.473 1340.4 Q132.288 1340.4 129.256 1337.28 Q126.246 1334.13 126.246 1328.69 Q126.246 1323.36 129.394 1320.15 Q132.543 1316.93 137.774 1316.93 Q143.769 1316.93 146.918 1321.53 Q150.089 1326.12 150.089 1334.87 Q150.089 1343.04 146.2 1347.92 Q142.334 1352.78 135.783 1352.78 Q134.024 1352.78 132.219 1352.44 Q130.413 1352.09 128.469 1351.4 M137.774 1336.74 Q140.922 1336.74 142.751 1334.59 Q144.603 1332.44 144.603 1328.69 Q144.603 1324.96 142.751 1322.81 Q140.922 1320.63 137.774 1320.63 Q134.626 1320.63 132.774 1322.81 Q130.945 1324.96 130.945 1328.69 Q130.945 1332.44 132.774 1334.59 Q134.626 1336.74 137.774 1336.74 Z" fill="#000000" fill-rule="evenodd" fill-opacity="1"></path><path clip-path="url(#clip870)" d="M162.519 1348.18 L178.839 1348.18 L178.839 1352.11 L156.894 1352.11 L156.894 1348.18 Q159.556 1345.42 164.14 1340.79 Q168.746 1336.14 169.927 1334.8 Q172.172 1332.28 173.052 1330.54 Q173.954 1328.78 173.954 1327.09 Q173.954 1324.34 172.01 1322.6 Q170.089 1320.86 166.987 1320.86 Q164.788 1320.86 162.334 1321.63 Q159.904 1322.39 157.126 1323.94 L157.126 1319.22 Q159.95 1318.09 162.404 1317.51 Q164.857 1316.93 166.894 1316.93 Q172.265 1316.93 175.459 1319.61 Q178.653 1322.3 178.653 1326.79 Q178.653 1328.92 177.843 1330.84 Q177.056 1332.74 174.95 1335.33 Q174.371 1336 171.269 1339.22 Q168.167 1342.41 162.519 1348.18 Z" fill="#000000" fill-rule="evenodd" fill-opacity="1"></path><path clip-path="url(#clip870)" d="M198.653 1320.63 Q195.042 1320.63 193.214 1324.2 Q191.408 1327.74 191.408 1334.87 Q191.408 1341.97 193.214 1345.54 Q195.042 1349.08 198.653 1349.08 Q202.288 1349.08 204.093 1345.54 Q205.922 1341.97 205.922 1334.87 Q205.922 1327.74 204.093 1324.2 Q202.288 1320.63 198.653 1320.63 M198.653 1316.93 Q204.464 1316.93 207.519 1321.53 Q210.598 1326.12 210.598 1334.87 Q210.598 1343.59 207.519 1348.2 Q204.464 1352.78 198.653 1352.78 Q192.843 1352.78 189.765 1348.2 Q186.709 1343.59 186.709 1334.87 Q186.709 1326.12 189.765 1321.53 Q192.843 1316.93 198.653 1316.93 Z" fill="#000000" fill-rule="evenodd" fill-opacity="1"></path><path clip-path="url(#clip870)" d="M68.33 1139.7 Q71.6865 1140.41 73.5614 1142.68 Q75.4596 1144.95 75.4596 1148.28 Q75.4596 1153.4 71.9411 1156.2 Q68.4226 1159 61.9411 1159 Q59.7652 1159 57.4504 1158.56 Q55.1588 1158.14 52.7051 1157.29 L52.7051 1152.77 Q54.6495 1153.91 56.9643 1154.49 Q59.2791 1155.07 61.8023 1155.07 Q66.2004 1155.07 68.492 1153.33 Q70.8068 1151.59 70.8068 1148.28 Q70.8068 1145.23 68.6541 1143.52 Q66.5245 1141.78 62.705 1141.78 L58.6773 1141.78 L58.6773 1137.94 L62.8902 1137.94 Q66.3393 1137.94 68.168 1136.57 Q69.9967 1135.18 69.9967 1132.59 Q69.9967 1129.93 68.0985 1128.52 Q66.2235 1127.08 62.705 1127.08 Q60.7837 1127.08 58.5847 1127.5 Q56.3856 1127.91 53.7467 1128.79 L53.7467 1124.63 Q56.4088 1123.89 58.7236 1123.52 Q61.0615 1123.15 63.1217 1123.15 Q68.4457 1123.15 71.5476 1125.58 Q74.6494 1127.98 74.6494 1132.1 Q74.6494 1134.97 73.0059 1136.96 Q71.3624 1138.93 68.33 1139.7 Z" fill="#000000" fill-rule="evenodd" fill-opacity="1"></path><path clip-path="url(#clip870)" d="M94.9039 1139.19 Q91.7558 1139.19 89.904 1141.34 Q88.0753 1143.49 88.0753 1147.24 Q88.0753 1150.97 89.904 1153.15 Q91.7558 1155.3 94.9039 1155.3 Q98.0521 1155.3 99.8808 1153.15 Q101.733 1150.97 101.733 1147.24 Q101.733 1143.49 99.8808 1141.34 Q98.0521 1139.19 94.9039 1139.19 M104.186 1124.53 L104.186 1128.79 Q102.427 1127.96 100.621 1127.52 Q98.8391 1127.08 97.0798 1127.08 Q92.4502 1127.08 89.9965 1130.21 Q87.566 1133.33 87.2188 1139.65 Q88.5845 1137.64 90.6447 1136.57 Q92.7049 1135.48 95.1817 1135.48 Q100.39 1135.48 103.399 1138.65 Q106.432 1141.8 106.432 1147.24 Q106.432 1152.57 103.284 1155.78 Q100.135 1159 94.9039 1159 Q88.9086 1159 85.7373 1154.42 Q82.566 1149.81 82.566 1141.08 Q82.566 1132.89 86.4549 1128.03 Q90.3438 1123.15 96.8947 1123.15 Q98.6539 1123.15 100.436 1123.49 Q102.242 1123.84 104.186 1124.53 Z" fill="#000000" fill-rule="evenodd" fill-opacity="1"></path><path clip-path="url(#clip870)" d="M114.487 1152.45 L119.371 1152.45 L119.371 1158.33 L114.487 1158.33 L114.487 1152.45 Z" fill="#000000" fill-rule="evenodd" fill-opacity="1"></path><path clip-path="url(#clip870)" d="M129.695 1157.61 L129.695 1153.35 Q131.455 1154.19 133.26 1154.63 Q135.066 1155.07 136.802 1155.07 Q141.431 1155.07 143.862 1151.96 Q146.316 1148.84 146.663 1142.5 Q145.32 1144.49 143.26 1145.55 Q141.2 1146.62 138.7 1146.62 Q133.515 1146.62 130.482 1143.49 Q127.473 1140.34 127.473 1134.9 Q127.473 1129.58 130.621 1126.36 Q133.769 1123.15 139.001 1123.15 Q144.996 1123.15 148.144 1127.75 Q151.316 1132.33 151.316 1141.08 Q151.316 1149.26 147.427 1154.14 Q143.561 1159 137.01 1159 Q135.251 1159 133.445 1158.65 Q131.64 1158.31 129.695 1157.61 M139.001 1142.96 Q142.149 1142.96 143.978 1140.81 Q145.83 1138.65 145.83 1134.9 Q145.83 1131.18 143.978 1129.02 Q142.149 1126.85 139.001 1126.85 Q135.853 1126.85 134.001 1129.02 Q132.172 1131.18 132.172 1134.9 Q132.172 1138.65 134.001 1140.81 Q135.853 1142.96 139.001 1142.96 Z" fill="#000000" fill-rule="evenodd" fill-opacity="1"></path><path clip-path="url(#clip870)" d="M163.746 1154.4 L180.066 1154.4 L180.066 1158.33 L158.121 1158.33 L158.121 1154.4 Q160.783 1151.64 165.367 1147.01 Q169.973 1142.36 171.154 1141.02 Q173.399 1138.49 174.279 1136.76 Q175.181 1135 175.181 1133.31 Q175.181 1130.55 173.237 1128.82 Q171.316 1127.08 168.214 1127.08 Q166.015 1127.08 163.561 1127.84 Q161.13 1128.61 158.353 1130.16 L158.353 1125.44 Q161.177 1124.3 163.63 1123.72 Q166.084 1123.15 168.121 1123.15 Q173.491 1123.15 176.686 1125.83 Q179.88 1128.52 179.88 1133.01 Q179.88 1135.14 179.07 1137.06 Q178.283 1138.96 176.177 1141.55 Q175.598 1142.22 172.496 1145.44 Q169.394 1148.63 163.746 1154.4 Z" fill="#000000" fill-rule="evenodd" fill-opacity="1"></path><path clip-path="url(#clip870)" d="M190.69 1154.4 L198.329 1154.4 L198.329 1128.03 L190.019 1129.7 L190.019 1125.44 L198.283 1123.77 L202.959 1123.77 L202.959 1154.4 L210.598 1154.4 L210.598 1158.33 L190.69 1158.33 L190.69 1154.4 Z" fill="#000000" fill-rule="evenodd" fill-opacity="1"></path><path clip-path="url(#clip870)" d="M68.7004 945.913 Q72.0568 946.631 73.9318 948.899 Q75.83 951.168 75.83 954.501 Q75.83 959.617 72.3115 962.418 Q68.793 965.219 62.3115 965.219 Q60.1356 965.219 57.8208 964.779 Q55.5291 964.362 53.0754 963.506 L53.0754 958.992 Q55.0199 960.126 57.3347 960.705 Q59.6495 961.283 62.1726 961.283 Q66.5707 961.283 68.8624 959.547 Q71.1772 957.811 71.1772 954.501 Q71.1772 951.446 69.0244 949.733 Q66.8948 947.996 63.0754 947.996 L59.0476 947.996 L59.0476 944.154 L63.2606 944.154 Q66.7096 944.154 68.5383 942.788 Q70.367 941.399 70.367 938.807 Q70.367 936.145 68.4689 934.733 Q66.5939 933.297 63.0754 933.297 Q61.1541 933.297 58.955 933.714 Q56.756 934.131 54.1171 935.01 L54.1171 930.844 Q56.7791 930.103 59.0939 929.733 Q61.4319 929.362 63.4921 929.362 Q68.8161 929.362 71.9179 931.793 Q75.0198 934.2 75.0198 938.321 Q75.0198 941.191 73.3763 943.182 Q71.7328 945.149 68.7004 945.913 Z" fill="#000000" fill-rule="evenodd" fill-opacity="1"></path><path clip-path="url(#clip870)" d="M95.2743 945.404 Q92.1262 945.404 90.2743 947.557 Q88.4456 949.709 88.4456 953.459 Q88.4456 957.186 90.2743 959.362 Q92.1262 961.515 95.2743 961.515 Q98.4224 961.515 100.251 959.362 Q102.103 957.186 102.103 953.459 Q102.103 949.709 100.251 947.557 Q98.4224 945.404 95.2743 945.404 M104.557 930.751 L104.557 935.01 Q102.797 934.177 100.992 933.737 Q99.2095 933.297 97.4502 933.297 Q92.8206 933.297 90.3669 936.422 Q87.9364 939.547 87.5892 945.867 Q88.9549 943.853 91.0151 942.788 Q93.0752 941.7 95.5521 941.7 Q100.76 941.7 103.77 944.871 Q106.802 948.02 106.802 953.459 Q106.802 958.783 103.654 962.001 Q100.506 965.219 95.2743 965.219 Q89.279 965.219 86.1077 960.635 Q82.9364 956.029 82.9364 947.302 Q82.9364 939.108 86.8253 934.247 Q90.7141 929.362 97.265 929.362 Q99.0243 929.362 100.807 929.71 Q102.612 930.057 104.557 930.751 Z" fill="#000000" fill-rule="evenodd" fill-opacity="1"></path><path clip-path="url(#clip870)" d="M114.858 958.668 L119.742 958.668 L119.742 964.547 L114.858 964.547 L114.858 958.668 Z" fill="#000000" fill-rule="evenodd" fill-opacity="1"></path><path clip-path="url(#clip870)" d="M130.066 963.83 L130.066 959.57 Q131.825 960.404 133.631 960.844 Q135.436 961.283 137.172 961.283 Q141.802 961.283 144.232 958.182 Q146.686 955.057 147.033 948.714 Q145.691 950.705 143.631 951.77 Q141.57 952.834 139.07 952.834 Q133.885 952.834 130.853 949.709 Q127.844 946.561 127.844 941.121 Q127.844 935.797 130.992 932.58 Q134.14 929.362 139.371 929.362 Q145.367 929.362 148.515 933.969 Q151.686 938.552 151.686 947.302 Q151.686 955.473 147.797 960.358 Q143.931 965.219 137.381 965.219 Q135.621 965.219 133.816 964.871 Q132.01 964.524 130.066 963.83 M139.371 949.177 Q142.519 949.177 144.348 947.024 Q146.2 944.871 146.2 941.121 Q146.2 937.395 144.348 935.242 Q142.519 933.066 139.371 933.066 Q136.223 933.066 134.371 935.242 Q132.543 937.395 132.543 941.121 Q132.543 944.871 134.371 947.024 Q136.223 949.177 139.371 949.177 Z" fill="#000000" fill-rule="evenodd" fill-opacity="1"></path><path clip-path="url(#clip870)" d="M164.117 960.612 L180.436 960.612 L180.436 964.547 L158.492 964.547 L158.492 960.612 Q161.154 957.858 165.737 953.228 Q170.343 948.575 171.524 947.233 Q173.769 944.709 174.649 942.973 Q175.552 941.214 175.552 939.524 Q175.552 936.77 173.607 935.034 Q171.686 933.297 168.584 933.297 Q166.385 933.297 163.931 934.061 Q161.501 934.825 158.723 936.376 L158.723 931.654 Q161.547 930.52 164.001 929.941 Q166.454 929.362 168.491 929.362 Q173.862 929.362 177.056 932.047 Q180.251 934.733 180.251 939.223 Q180.251 941.353 179.441 943.274 Q178.653 945.172 176.547 947.765 Q175.968 948.436 172.866 951.654 Q169.765 954.848 164.117 960.612 Z" fill="#000000" fill-rule="evenodd" fill-opacity="1"></path><path clip-path="url(#clip870)" d="M194.278 960.612 L210.598 960.612 L210.598 964.547 L188.653 964.547 L188.653 960.612 Q191.315 957.858 195.899 953.228 Q200.505 948.575 201.686 947.233 Q203.931 944.709 204.811 942.973 Q205.714 941.214 205.714 939.524 Q205.714 936.77 203.769 935.034 Q201.848 933.297 198.746 933.297 Q196.547 933.297 194.093 934.061 Q191.663 934.825 188.885 936.376 L188.885 931.654 Q191.709 930.52 194.163 929.941 Q196.616 929.362 198.653 929.362 Q204.024 929.362 207.218 932.047 Q210.413 934.733 210.413 939.223 Q210.413 941.353 209.602 943.274 Q208.815 945.172 206.709 947.765 Q206.13 948.436 203.028 951.654 Q199.927 954.848 194.278 960.612 Z" fill="#000000" fill-rule="evenodd" fill-opacity="1"></path><path clip-path="url(#clip870)" d="M67.7513 752.13 Q71.1078 752.848 72.9827 755.116 Q74.8809 757.385 74.8809 760.718 Q74.8809 765.834 71.3624 768.635 Q67.8439 771.436 61.3624 771.436 Q59.1865 771.436 56.8717 770.996 Q54.5801 770.579 52.1264 769.723 L52.1264 765.209 Q54.0708 766.343 56.3856 766.922 Q58.7004 767.501 61.2236 767.501 Q65.6217 767.501 67.9133 765.764 Q70.2281 764.028 70.2281 760.718 Q70.2281 757.663 68.0754 755.95 Q65.9457 754.214 62.1263 754.214 L58.0986 754.214 L58.0986 750.371 L62.3115 750.371 Q65.7606 750.371 67.5893 749.005 Q69.418 747.616 69.418 745.024 Q69.418 742.362 67.5198 740.95 Q65.6448 739.515 62.1263 739.515 Q60.205 739.515 58.006 739.931 Q55.8069 740.348 53.168 741.228 L53.168 737.061 Q55.8301 736.32 58.1449 735.95 Q60.4828 735.579 62.543 735.579 Q67.867 735.579 70.9689 738.01 Q74.0707 740.417 74.0707 744.538 Q74.0707 747.408 72.4272 749.399 Q70.7837 751.366 67.7513 752.13 Z" fill="#000000" fill-rule="evenodd" fill-opacity="1"></path><path clip-path="url(#clip870)" d="M94.3252 751.621 Q91.1771 751.621 89.3253 753.774 Q87.4966 755.927 87.4966 759.677 Q87.4966 763.403 89.3253 765.579 Q91.1771 767.732 94.3252 767.732 Q97.4734 767.732 99.3021 765.579 Q101.154 763.403 101.154 759.677 Q101.154 755.927 99.3021 753.774 Q97.4734 751.621 94.3252 751.621 M103.608 736.968 L103.608 741.228 Q101.848 740.394 100.043 739.954 Q98.2604 739.515 96.5011 739.515 Q91.8715 739.515 89.4178 742.64 Q86.9873 745.765 86.6401 752.084 Q88.0058 750.07 90.066 749.005 Q92.1262 747.917 94.603 747.917 Q99.8113 747.917 102.821 751.089 Q105.853 754.237 105.853 759.677 Q105.853 765.001 102.705 768.218 Q99.5567 771.436 94.3252 771.436 Q88.3299 771.436 85.1586 766.852 Q81.9873 762.246 81.9873 753.519 Q81.9873 745.325 85.8762 740.464 Q89.7651 735.579 96.316 735.579 Q98.0752 735.579 99.8576 735.927 Q101.663 736.274 103.608 736.968 Z" fill="#000000" fill-rule="evenodd" fill-opacity="1"></path><path clip-path="url(#clip870)" d="M113.908 764.885 L118.793 764.885 L118.793 770.764 L113.908 770.764 L113.908 764.885 Z" fill="#000000" fill-rule="evenodd" fill-opacity="1"></path><path clip-path="url(#clip870)" d="M129.117 770.047 L129.117 765.788 Q130.876 766.621 132.682 767.061 Q134.487 767.501 136.223 767.501 Q140.853 767.501 143.283 764.399 Q145.737 761.274 146.084 754.931 Q144.742 756.922 142.681 757.987 Q140.621 759.052 138.121 759.052 Q132.936 759.052 129.904 755.927 Q126.894 752.778 126.894 747.339 Q126.894 742.015 130.043 738.797 Q133.191 735.579 138.422 735.579 Q144.418 735.579 147.566 740.186 Q150.737 744.769 150.737 753.519 Q150.737 761.69 146.848 766.575 Q142.982 771.436 136.431 771.436 Q134.672 771.436 132.867 771.088 Q131.061 770.741 129.117 770.047 M138.422 755.394 Q141.57 755.394 143.399 753.241 Q145.251 751.089 145.251 747.339 Q145.251 743.612 143.399 741.459 Q141.57 739.283 138.422 739.283 Q135.274 739.283 133.422 741.459 Q131.594 743.612 131.594 747.339 Q131.594 751.089 133.422 753.241 Q135.274 755.394 138.422 755.394 Z" fill="#000000" fill-rule="evenodd" fill-opacity="1"></path><path clip-path="url(#clip870)" d="M163.167 766.829 L179.487 766.829 L179.487 770.764 L157.542 770.764 L157.542 766.829 Q160.205 764.075 164.788 759.445 Q169.394 754.792 170.575 753.45 Q172.82 750.927 173.7 749.19 Q174.603 747.431 174.603 745.741 Q174.603 742.987 172.658 741.251 Q170.737 739.515 167.635 739.515 Q165.436 739.515 162.982 740.278 Q160.552 741.042 157.774 742.593 L157.774 737.871 Q160.598 736.737 163.052 736.158 Q165.505 735.579 167.542 735.579 Q172.913 735.579 176.107 738.265 Q179.302 740.95 179.302 745.44 Q179.302 747.57 178.491 749.491 Q177.704 751.39 175.598 753.982 Q175.019 754.653 171.917 757.871 Q168.816 761.065 163.167 766.829 Z" fill="#000000" fill-rule="evenodd" fill-opacity="1"></path><path clip-path="url(#clip870)" d="M203.468 752.13 Q206.825 752.848 208.7 755.116 Q210.598 757.385 210.598 760.718 Q210.598 765.834 207.079 768.635 Q203.561 771.436 197.079 771.436 Q194.903 771.436 192.589 770.996 Q190.297 770.579 187.843 769.723 L187.843 765.209 Q189.788 766.343 192.102 766.922 Q194.417 767.501 196.94 767.501 Q201.339 767.501 203.63 765.764 Q205.945 764.028 205.945 760.718 Q205.945 757.663 203.792 755.95 Q201.663 754.214 197.843 754.214 L193.815 754.214 L193.815 750.371 L198.028 750.371 Q201.477 750.371 203.306 749.005 Q205.135 747.616 205.135 745.024 Q205.135 742.362 203.237 740.95 Q201.362 739.515 197.843 739.515 Q195.922 739.515 193.723 739.931 Q191.524 740.348 188.885 741.228 L188.885 737.061 Q191.547 736.32 193.862 735.95 Q196.2 735.579 198.26 735.579 Q203.584 735.579 206.686 738.01 Q209.788 740.417 209.788 744.538 Q209.788 747.408 208.144 749.399 Q206.501 751.366 203.468 752.13 Z" fill="#000000" fill-rule="evenodd" fill-opacity="1"></path><path clip-path="url(#clip870)" d="M66.617 558.347 Q69.9735 559.065 71.8485 561.333 Q73.7466 563.602 73.7466 566.935 Q73.7466 572.051 70.2281 574.852 Q66.7096 577.653 60.2282 577.653 Q58.0523 577.653 55.7375 577.213 Q53.4458 576.796 50.9921 575.94 L50.9921 571.426 Q52.9366 572.56 55.2514 573.139 Q57.5662 573.718 60.0893 573.718 Q64.4874 573.718 66.7791 571.982 Q69.0939 570.245 69.0939 566.935 Q69.0939 563.88 66.9411 562.167 Q64.8115 560.431 60.9921 560.431 L56.9643 560.431 L56.9643 556.588 L61.1773 556.588 Q64.6263 556.588 66.455 555.222 Q68.2837 553.834 68.2837 551.241 Q68.2837 548.579 66.3856 547.167 Q64.5106 545.732 60.9921 545.732 Q59.0708 545.732 56.8717 546.148 Q54.6727 546.565 52.0338 547.445 L52.0338 543.278 Q54.6958 542.537 57.0106 542.167 Q59.3486 541.797 61.4087 541.797 Q66.7328 541.797 69.8346 544.227 Q72.9365 546.634 72.9365 550.755 Q72.9365 553.625 71.2929 555.616 Q69.6494 557.583 66.617 558.347 Z" fill="#000000" fill-rule="evenodd" fill-opacity="1"></path><path clip-path="url(#clip870)" d="M93.191 557.838 Q90.0428 557.838 88.191 559.991 Q86.3623 562.144 86.3623 565.894 Q86.3623 569.62 88.191 571.796 Q90.0428 573.949 93.191 573.949 Q96.3391 573.949 98.1678 571.796 Q100.02 569.62 100.02 565.894 Q100.02 562.144 98.1678 559.991 Q96.3391 557.838 93.191 557.838 M102.473 543.185 L102.473 547.445 Q100.714 546.611 98.9085 546.172 Q97.1261 545.732 95.3669 545.732 Q90.7373 545.732 88.2836 548.857 Q85.8531 551.982 85.5058 558.301 Q86.8716 556.287 88.9317 555.222 Q90.9919 554.134 93.4688 554.134 Q98.6771 554.134 101.686 557.306 Q104.719 560.454 104.719 565.894 Q104.719 571.218 101.571 574.435 Q98.4224 577.653 93.191 577.653 Q87.1956 577.653 84.0244 573.07 Q80.8531 568.463 80.8531 559.736 Q80.8531 551.542 84.7419 546.681 Q88.6308 541.797 95.1817 541.797 Q96.941 541.797 98.7234 542.144 Q100.529 542.491 102.473 543.185 Z" fill="#000000" fill-rule="evenodd" fill-opacity="1"></path><path clip-path="url(#clip870)" d="M112.774 571.102 L117.658 571.102 L117.658 576.982 L112.774 576.982 L112.774 571.102 Z" fill="#000000" fill-rule="evenodd" fill-opacity="1"></path><path clip-path="url(#clip870)" d="M127.982 576.264 L127.982 572.005 Q129.742 572.838 131.547 573.278 Q133.353 573.718 135.089 573.718 Q139.719 573.718 142.149 570.616 Q144.603 567.491 144.95 561.148 Q143.607 563.139 141.547 564.204 Q139.487 565.269 136.987 565.269 Q131.802 565.269 128.769 562.144 Q125.76 558.996 125.76 553.556 Q125.76 548.232 128.908 545.014 Q132.057 541.797 137.288 541.797 Q143.283 541.797 146.431 546.403 Q149.603 550.986 149.603 559.736 Q149.603 567.908 145.714 572.792 Q141.848 577.653 135.297 577.653 Q133.538 577.653 131.732 577.306 Q129.927 576.958 127.982 576.264 M137.288 561.611 Q140.436 561.611 142.265 559.458 Q144.117 557.306 144.117 553.556 Q144.117 549.829 142.265 547.676 Q140.436 545.5 137.288 545.5 Q134.14 545.5 132.288 547.676 Q130.459 549.829 130.459 553.556 Q130.459 557.306 132.288 559.458 Q134.14 561.611 137.288 561.611 Z" fill="#000000" fill-rule="evenodd" fill-opacity="1"></path><path clip-path="url(#clip870)" d="M162.033 573.046 L178.353 573.046 L178.353 576.982 L156.408 576.982 L156.408 573.046 Q159.07 570.292 163.654 565.662 Q168.26 561.009 169.441 559.667 Q171.686 557.144 172.566 555.408 Q173.468 553.648 173.468 551.959 Q173.468 549.204 171.524 547.468 Q169.603 545.732 166.501 545.732 Q164.302 545.732 161.848 546.496 Q159.417 547.259 156.64 548.81 L156.64 544.088 Q159.464 542.954 161.917 542.375 Q164.371 541.797 166.408 541.797 Q171.779 541.797 174.973 544.482 Q178.167 547.167 178.167 551.658 Q178.167 553.787 177.357 555.708 Q176.57 557.607 174.464 560.199 Q173.885 560.871 170.783 564.088 Q167.681 567.283 162.033 573.046 Z" fill="#000000" fill-rule="evenodd" fill-opacity="1"></path><path clip-path="url(#clip870)" d="M201.014 546.496 L189.209 564.945 L201.014 564.945 L201.014 546.496 M199.788 542.422 L205.667 542.422 L205.667 564.945 L210.598 564.945 L210.598 568.833 L205.667 568.833 L205.667 576.982 L201.014 576.982 L201.014 568.833 L185.413 568.833 L185.413 564.32 L199.788 542.422 Z" fill="#000000" fill-rule="evenodd" fill-opacity="1"></path><path clip-path="url(#clip870)" d="M68.0985 364.564 Q71.455 365.282 73.33 367.551 Q75.2281 369.819 75.2281 373.152 Q75.2281 378.268 71.7096 381.069 Q68.1911 383.87 61.7097 383.87 Q59.5337 383.87 57.2189 383.43 Q54.9273 383.013 52.4736 382.157 L52.4736 377.643 Q54.418 378.777 56.7328 379.356 Q59.0476 379.935 61.5708 379.935 Q65.9689 379.935 68.2606 378.199 Q70.5754 376.463 70.5754 373.152 Q70.5754 370.097 68.4226 368.384 Q66.293 366.648 62.4735 366.648 L58.4458 366.648 L58.4458 362.805 L62.6587 362.805 Q66.1078 362.805 67.9365 361.44 Q69.7652 360.051 69.7652 357.458 Q69.7652 354.796 67.867 353.384 Q65.992 351.949 62.4735 351.949 Q60.5523 351.949 58.3532 352.365 Q56.1541 352.782 53.5153 353.662 L53.5153 349.495 Q56.1773 348.754 58.4921 348.384 Q60.83 348.014 62.8902 348.014 Q68.2143 348.014 71.3161 350.444 Q74.4179 352.852 74.4179 356.972 Q74.4179 359.842 72.7744 361.833 Q71.1309 363.801 68.0985 364.564 Z" fill="#000000" fill-rule="evenodd" fill-opacity="1"></path><path clip-path="url(#clip870)" d="M94.6724 364.055 Q91.5243 364.055 89.6725 366.208 Q87.8438 368.361 87.8438 372.111 Q87.8438 375.838 89.6725 378.013 Q91.5243 380.166 94.6724 380.166 Q97.8206 380.166 99.6493 378.013 Q101.501 375.838 101.501 372.111 Q101.501 368.361 99.6493 366.208 Q97.8206 364.055 94.6724 364.055 M103.955 349.403 L103.955 353.662 Q102.196 352.828 100.39 352.389 Q98.6076 351.949 96.8484 351.949 Q92.2188 351.949 89.7651 355.074 Q87.3345 358.199 86.9873 364.518 Q88.353 362.504 90.4132 361.44 Q92.4734 360.352 94.9502 360.352 Q100.159 360.352 103.168 363.523 Q106.2 366.671 106.2 372.111 Q106.2 377.435 103.052 380.652 Q99.9039 383.87 94.6724 383.87 Q88.6771 383.87 85.5058 379.287 Q82.3346 374.68 82.3346 365.953 Q82.3346 357.759 86.2234 352.898 Q90.1123 348.014 96.6632 348.014 Q98.4224 348.014 100.205 348.361 Q102.01 348.708 103.955 349.403 Z" fill="#000000" fill-rule="evenodd" fill-opacity="1"></path><path clip-path="url(#clip870)" d="M114.256 377.319 L119.14 377.319 L119.14 383.199 L114.256 383.199 L114.256 377.319 Z" fill="#000000" fill-rule="evenodd" fill-opacity="1"></path><path clip-path="url(#clip870)" d="M129.464 382.481 L129.464 378.222 Q131.223 379.055 133.029 379.495 Q134.834 379.935 136.57 379.935 Q141.2 379.935 143.631 376.833 Q146.084 373.708 146.431 367.365 Q145.089 369.356 143.029 370.421 Q140.968 371.486 138.469 371.486 Q133.283 371.486 130.251 368.361 Q127.242 365.213 127.242 359.773 Q127.242 354.449 130.39 351.231 Q133.538 348.014 138.769 348.014 Q144.765 348.014 147.913 352.62 Q151.084 357.203 151.084 365.953 Q151.084 374.125 147.195 379.009 Q143.33 383.87 136.779 383.87 Q135.019 383.87 133.214 383.523 Q131.408 383.176 129.464 382.481 M138.769 367.828 Q141.918 367.828 143.746 365.676 Q145.598 363.523 145.598 359.773 Q145.598 356.046 143.746 353.893 Q141.918 351.717 138.769 351.717 Q135.621 351.717 133.769 353.893 Q131.941 356.046 131.941 359.773 Q131.941 363.523 133.769 365.676 Q135.621 367.828 138.769 367.828 Z" fill="#000000" fill-rule="evenodd" fill-opacity="1"></path><path clip-path="url(#clip870)" d="M163.515 379.263 L179.834 379.263 L179.834 383.199 L157.89 383.199 L157.89 379.263 Q160.552 376.509 165.135 371.879 Q169.741 367.227 170.922 365.884 Q173.167 363.361 174.047 361.625 Q174.95 359.865 174.95 358.176 Q174.95 355.421 173.005 353.685 Q171.084 351.949 167.982 351.949 Q165.783 351.949 163.329 352.713 Q160.899 353.477 158.121 355.028 L158.121 350.305 Q160.945 349.171 163.399 348.592 Q165.853 348.014 167.89 348.014 Q173.26 348.014 176.454 350.699 Q179.649 353.384 179.649 357.875 Q179.649 360.004 178.839 361.926 Q178.052 363.824 175.945 366.416 Q175.366 367.088 172.265 370.305 Q169.163 373.5 163.515 379.263 Z" fill="#000000" fill-rule="evenodd" fill-opacity="1"></path><path clip-path="url(#clip870)" d="M189.695 348.639 L208.051 348.639 L208.051 352.574 L193.977 352.574 L193.977 361.046 Q194.996 360.699 196.014 360.537 Q197.033 360.352 198.052 360.352 Q203.839 360.352 207.218 363.523 Q210.598 366.694 210.598 372.111 Q210.598 377.689 207.126 380.791 Q203.653 383.87 197.334 383.87 Q195.158 383.87 192.89 383.5 Q190.644 383.129 188.237 382.388 L188.237 377.689 Q190.32 378.824 192.542 379.379 Q194.765 379.935 197.241 379.935 Q201.246 379.935 203.584 377.828 Q205.922 375.722 205.922 372.111 Q205.922 368.5 203.584 366.393 Q201.246 364.287 197.241 364.287 Q195.366 364.287 193.491 364.703 Q191.64 365.12 189.695 366 L189.695 348.639 Z" fill="#000000" fill-rule="evenodd" fill-opacity="1"></path><path clip-path="url(#clip870)" d="M66.9411 170.782 Q70.2976 171.499 72.1726 173.768 Q74.0707 176.036 74.0707 179.37 Q74.0707 184.485 70.5522 187.286 Q67.0337 190.087 60.5523 190.087 Q58.3763 190.087 56.0615 189.647 Q53.7699 189.231 51.3162 188.374 L51.3162 183.86 Q53.2606 184.994 55.5754 185.573 Q57.8902 186.152 60.4134 186.152 Q64.8115 186.152 67.1032 184.416 Q69.418 182.68 69.418 179.37 Q69.418 176.314 67.2652 174.601 Q65.1356 172.865 61.3161 172.865 L57.2884 172.865 L57.2884 169.022 L61.5013 169.022 Q64.9504 169.022 66.7791 167.657 Q68.6078 166.268 68.6078 163.675 Q68.6078 161.013 66.7096 159.601 Q64.8346 158.166 61.3161 158.166 Q59.3949 158.166 57.1958 158.583 Q54.9967 158.999 52.3579 159.879 L52.3579 155.712 Q55.0199 154.972 57.3347 154.601 Q59.6726 154.231 61.7328 154.231 Q67.0569 154.231 70.1587 156.661 Q73.2605 159.069 73.2605 163.189 Q73.2605 166.059 71.617 168.05 Q69.9735 170.018 66.9411 170.782 Z" fill="#000000" fill-rule="evenodd" fill-opacity="1"></path><path clip-path="url(#clip870)" d="M93.515 170.272 Q90.3669 170.272 88.5151 172.425 Q86.6864 174.578 86.6864 178.328 Q86.6864 182.055 88.5151 184.231 Q90.3669 186.383 93.515 186.383 Q96.6632 186.383 98.4919 184.231 Q100.344 182.055 100.344 178.328 Q100.344 174.578 98.4919 172.425 Q96.6632 170.272 93.515 170.272 M102.797 155.62 L102.797 159.879 Q101.038 159.046 99.2326 158.606 Q97.4502 158.166 95.691 158.166 Q91.0614 158.166 88.6077 161.291 Q86.1771 164.416 85.8299 170.735 Q87.1956 168.721 89.2558 167.657 Q91.316 166.569 93.7928 166.569 Q99.0011 166.569 102.01 169.74 Q105.043 172.888 105.043 178.328 Q105.043 183.652 101.895 186.869 Q98.7465 190.087 93.515 190.087 Q87.5197 190.087 84.3484 185.504 Q81.1771 180.897 81.1771 172.17 Q81.1771 163.976 85.066 159.115 Q88.9549 154.231 95.5058 154.231 Q97.265 154.231 99.0474 154.578 Q100.853 154.925 102.797 155.62 Z" fill="#000000" fill-rule="evenodd" fill-opacity="1"></path><path clip-path="url(#clip870)" d="M113.098 183.536 L117.983 183.536 L117.983 189.416 L113.098 189.416 L113.098 183.536 Z" fill="#000000" fill-rule="evenodd" fill-opacity="1"></path><path clip-path="url(#clip870)" d="M128.307 188.698 L128.307 184.439 Q130.066 185.272 131.871 185.712 Q133.677 186.152 135.413 186.152 Q140.043 186.152 142.473 183.05 Q144.927 179.925 145.274 173.583 Q143.931 175.573 141.871 176.638 Q139.811 177.703 137.311 177.703 Q132.126 177.703 129.094 174.578 Q126.084 171.43 126.084 165.99 Q126.084 160.666 129.232 157.448 Q132.381 154.231 137.612 154.231 Q143.607 154.231 146.756 158.837 Q149.927 163.421 149.927 172.17 Q149.927 180.342 146.038 185.226 Q142.172 190.087 135.621 190.087 Q133.862 190.087 132.057 189.74 Q130.251 189.393 128.307 188.698 M137.612 174.045 Q140.76 174.045 142.589 171.893 Q144.441 169.74 144.441 165.99 Q144.441 162.263 142.589 160.11 Q140.76 157.934 137.612 157.934 Q134.464 157.934 132.612 160.11 Q130.783 162.263 130.783 165.99 Q130.783 169.74 132.612 171.893 Q134.464 174.045 137.612 174.045 Z" fill="#000000" fill-rule="evenodd" fill-opacity="1"></path><path clip-path="url(#clip870)" d="M162.357 185.481 L178.677 185.481 L178.677 189.416 L156.732 189.416 L156.732 185.481 Q159.394 182.726 163.978 178.096 Q168.584 173.444 169.765 172.101 Q172.01 169.578 172.89 167.842 Q173.792 166.083 173.792 164.393 Q173.792 161.638 171.848 159.902 Q169.927 158.166 166.825 158.166 Q164.626 158.166 162.172 158.93 Q159.742 159.694 156.964 161.245 L156.964 156.522 Q159.788 155.388 162.242 154.809 Q164.695 154.231 166.732 154.231 Q172.103 154.231 175.297 156.916 Q178.491 159.601 178.491 164.092 Q178.491 166.221 177.681 168.143 Q176.894 170.041 174.788 172.633 Q174.209 173.305 171.107 176.522 Q168.005 179.717 162.357 185.481 Z" fill="#000000" fill-rule="evenodd" fill-opacity="1"></path><path clip-path="url(#clip870)" d="M199.07 170.272 Q195.922 170.272 194.07 172.425 Q192.241 174.578 192.241 178.328 Q192.241 182.055 194.07 184.231 Q195.922 186.383 199.07 186.383 Q202.218 186.383 204.047 184.231 Q205.899 182.055 205.899 178.328 Q205.899 174.578 204.047 172.425 Q202.218 170.272 199.07 170.272 M208.352 155.62 L208.352 159.879 Q206.593 159.046 204.788 158.606 Q203.005 158.166 201.246 158.166 Q196.616 158.166 194.163 161.291 Q191.732 164.416 191.385 170.735 Q192.751 168.721 194.811 167.657 Q196.871 166.569 199.348 166.569 Q204.556 166.569 207.565 169.74 Q210.598 172.888 210.598 178.328 Q210.598 183.652 207.45 186.869 Q204.301 190.087 199.07 190.087 Q193.075 190.087 189.903 185.504 Q186.732 180.897 186.732 172.17 Q186.732 163.976 190.621 159.115 Q194.51 154.231 201.061 154.231 Q202.82 154.231 204.602 154.578 Q206.408 154.925 208.352 155.62 Z" fill="#000000" fill-rule="evenodd" fill-opacity="1"></path><polyline clip-path="url(#clip872)" style="stroke:#009af9; stroke-linecap:butt; stroke-linejoin:round; stroke-width:4; stroke-opacity:1; fill:none" points="
  306.206,87.9763 326.276,87.9763 346.346,87.9763 366.416,87.9763 386.486,87.9763 406.557,87.9763 426.627,87.9763 446.697,87.9763 466.767,87.9763 486.837,87.9763 
  506.907,87.9763 526.977,87.9763 547.047,87.9763 567.118,87.9763 587.188,87.9763 607.258,87.9763 627.328,87.9763 647.398,87.9763 667.468,87.9763 687.538,87.9763 
  707.608,87.9763 727.678,87.9763 747.749,87.9763 767.819,87.9763 787.889,87.9763 807.959,87.9763 828.029,87.9763 848.099,87.9763 868.169,87.9763 888.239,87.9763 
  908.31,87.9763 928.38,87.9763 948.45,87.9763 968.52,87.9763 988.59,87.9763 1008.66,87.9763 1028.73,87.9763 1048.8,87.9763 1068.87,87.9763 1088.94,87.9763 
  1109.01,87.9763 1129.08,87.9763 1149.15,87.9763 1169.22,87.9763 1189.29,87.9763 1209.36,87.9763 1229.43,87.9763 1249.5,87.9763 1269.57,87.9763 1289.64,87.9763 
  1309.71,87.9763 1329.78,87.9763 1349.85,87.9763 1369.92,87.9763 1389.99,87.9763 1410.06,87.9763 1430.13,87.9763 1450.2,87.9763 1470.27,87.9763 1490.34,87.9763 
  1510.41,87.9763 1530.48,87.9763 1550.55,87.9763 1570.62,87.9763 1590.69,87.9763 1610.76,87.9763 1630.83,87.9763 1650.9,87.9763 1670.97,87.9763 1691.04,87.9763 
  1711.11,87.9763 1731.18,87.9763 1751.25,87.9763 1771.32,87.9763 1791.39,87.9763 1811.46,87.9763 1831.53,87.9763 1851.61,87.9763 1871.68,87.9763 1891.75,87.9763 
  1911.82,87.9763 1931.89,87.9763 1951.96,87.9763 1972.03,87.9763 1992.1,87.9763 2012.17,87.9763 2032.24,87.9763 2052.31,87.9763 2072.38,87.9763 2092.45,87.9763 
  2112.52,87.9763 2132.59,87.9763 2152.66,87.9763 2172.73,87.9763 2192.8,87.9763 2212.87,87.9763 2232.94,87.9763 2253.01,87.9763 2273.08,87.9763 2293.15,87.9763 
  
  "></polyline>
<polyline clip-path="url(#clip872)" style="stroke:#e26f46; stroke-linecap:butt; stroke-linejoin:round; stroke-width:4; stroke-opacity:1; fill:none" points="
  306.206,87.9763 326.276,225.828 346.346,264.351 366.416,294.126 386.486,308.75 406.557,326.852 426.627,337.494 446.697,351.459 466.767,360.66 486.837,371.776 
  506.907,383.065 526.977,391.2 547.047,403 567.118,412.159 587.188,421.943 607.258,431.684 627.328,443.726 647.398,451.395 667.468,461.832 687.538,475.292 
  707.608,482.118 727.678,493.968 747.749,505.884 767.819,515.343 787.889,526.362 807.959,537.652 828.029,549.456 848.099,559.238 868.169,571.108 888.239,583.493 
  908.31,593.272 928.38,605.306 948.45,617.639 968.52,628.282 988.59,639.73 1008.66,652.145 1028.73,663.709 1048.8,674.349 1068.87,686.997 1088.94,699.144 
  1109.01,709.156 1129.08,722.063 1149.15,734.398 1169.22,744.11 1189.29,757.384 1209.36,769.744 1229.43,779.81 1249.5,793.464 1269.57,805.963 1289.64,816.483 
  1309.71,830.443 1329.78,842.916 1349.85,853.961 1369.92,868.113 1389.99,880.41 1410.06,892.015 1430.13,906.287 1450.2,918.278 1470.27,930.441 1490.34,944.793 
  1510.41,956.388 1530.48,969.063 1550.55,983.473 1570.62,994.634 1590.69,1007.74 1610.76,1022.18 1630.83,1032.93 1650.9,1046.35 1670.97,1060.8 1691.04,1071.21 
  1711.11,1084.82 1731.18,1099.22 1751.25,1109.41 1771.32,1123.1 1791.39,1137.37 1811.46,1147.47 1831.53,1161.15 1851.61,1175.18 1871.68,1185.36 1891.75,1198.96 
  1911.82,1212.63 1931.89,1223.03 1951.96,1236.53 1972.03,1249.7 1992.1,1260.43 2012.17,1273.85 2032.24,1286.42 2052.31,1297.55 2072.38,1310.92 2092.45,1322.8 
  2112.52,1334.35 2132.59,1347.75 2152.66,1358.88 2172.73,1370.83 2192.8,1384.34 2212.87,1394.76 2232.94,1407.25 2253.01,1421.29 2273.08,1432.57 2293.15,1445.72 
  
  "></polyline>
<path clip-path="url(#clip870)" d="
M1702.59 250.738 L2282.55 250.738 L2282.55 95.2176 L1702.59 95.2176  Z
  " fill="#ffffff" fill-rule="evenodd" fill-opacity="1"></path>
<polyline clip-path="url(#clip870)" style="stroke:#000000; stroke-linecap:butt; stroke-linejoin:round; stroke-width:4; stroke-opacity:1; fill:none" points="
  1702.59,250.738 2282.55,250.738 2282.55,95.2176 1702.59,95.2176 1702.59,250.738 
  "></polyline>
<polyline clip-path="url(#clip870)" style="stroke:#009af9; stroke-linecap:butt; stroke-linejoin:round; stroke-width:4; stroke-opacity:1; fill:none" points="
  1725.99,147.058 1866.4,147.058 
  "></polyline>
<path clip-path="url(#clip870)" d="M1889.8 129.778 L1911.65 129.778 L1911.65 133.713 L1894.48 133.713 L1894.48 143.944 L1910.93 143.944 L1910.93 147.879 L1894.48 147.879 L1894.48 160.402 L1912.07 160.402 L1912.07 164.338 L1889.8 164.338 L1889.8 129.778 Z" fill="#000000" fill-rule="evenodd" fill-opacity="1"></path><path clip-path="url(#clip870)" d="M1941.12 148.689 L1941.12 164.338 L1936.86 164.338 L1936.86 148.828 Q1936.86 145.148 1935.42 143.319 Q1933.99 141.49 1931.12 141.49 Q1927.67 141.49 1925.68 143.69 Q1923.69 145.889 1923.69 149.685 L1923.69 164.338 L1919.41 164.338 L1919.41 138.412 L1923.69 138.412 L1923.69 142.44 Q1925.22 140.102 1927.28 138.944 Q1929.36 137.787 1932.07 137.787 Q1936.54 137.787 1938.83 140.565 Q1941.12 143.319 1941.12 148.689 Z" fill="#000000" fill-rule="evenodd" fill-opacity="1"></path><path clip-path="url(#clip870)" d="M1971.79 150.31 L1971.79 152.393 L1952.21 152.393 Q1952.48 156.791 1954.85 159.106 Q1957.23 161.398 1961.47 161.398 Q1963.92 161.398 1966.21 160.796 Q1968.53 160.194 1970.79 158.99 L1970.79 163.018 Q1968.5 163.99 1966.1 164.5 Q1963.69 165.009 1961.21 165.009 Q1955.01 165.009 1951.37 161.398 Q1947.76 157.787 1947.76 151.629 Q1947.76 145.264 1951.19 141.537 Q1954.64 137.787 1960.47 137.787 Q1965.7 137.787 1968.73 141.166 Q1971.79 144.523 1971.79 150.31 M1967.53 149.06 Q1967.48 145.565 1965.56 143.481 Q1963.67 141.398 1960.52 141.398 Q1956.95 141.398 1954.8 143.412 Q1952.67 145.426 1952.35 149.083 L1967.53 149.06 Z" fill="#000000" fill-rule="evenodd" fill-opacity="1"></path><path clip-path="url(#clip870)" d="M1993.8 142.393 Q1993.09 141.977 1992.23 141.791 Q1991.4 141.583 1990.38 141.583 Q1986.77 141.583 1984.82 143.944 Q1982.9 146.282 1982.9 150.68 L1982.9 164.338 L1978.62 164.338 L1978.62 138.412 L1982.9 138.412 L1982.9 142.44 Q1984.24 140.078 1986.4 138.944 Q1988.55 137.787 1991.63 137.787 Q1992.07 137.787 1992.6 137.856 Q1993.13 137.903 1993.78 138.018 L1993.8 142.393 Z" fill="#000000" fill-rule="evenodd" fill-opacity="1"></path><path clip-path="url(#clip870)" d="M2014.5 151.074 Q2014.5 146.444 2012.58 143.898 Q2010.68 141.352 2007.23 141.352 Q2003.8 141.352 2001.88 143.898 Q1999.98 146.444 1999.98 151.074 Q1999.98 155.68 2001.88 158.226 Q2003.8 160.773 2007.23 160.773 Q2010.68 160.773 2012.58 158.226 Q2014.5 155.68 2014.5 151.074 M2018.76 161.12 Q2018.76 167.74 2015.82 170.958 Q2012.88 174.199 2006.81 174.199 Q2004.57 174.199 2002.58 173.851 Q2000.59 173.527 1998.71 172.833 L1998.71 168.689 Q2000.59 169.708 2002.42 170.194 Q2004.24 170.68 2006.14 170.68 Q2010.33 170.68 2012.41 168.481 Q2014.5 166.305 2014.5 161.884 L2014.5 159.777 Q2013.18 162.069 2011.12 163.203 Q2009.06 164.338 2006.19 164.338 Q2001.42 164.338 1998.5 160.703 Q1995.59 157.069 1995.59 151.074 Q1995.59 145.055 1998.5 141.421 Q2001.42 137.787 2006.19 137.787 Q2009.06 137.787 2011.12 138.921 Q2013.18 140.055 2014.5 142.347 L2014.5 138.412 L2018.76 138.412 L2018.76 161.12 Z" fill="#000000" fill-rule="evenodd" fill-opacity="1"></path><path clip-path="url(#clip870)" d="M2038.32 166.745 Q2036.51 171.375 2034.8 172.787 Q2033.09 174.199 2030.22 174.199 L2026.81 174.199 L2026.81 170.634 L2029.31 170.634 Q2031.07 170.634 2032.04 169.8 Q2033.02 168.967 2034.2 165.865 L2034.96 163.921 L2024.48 138.412 L2028.99 138.412 L2037.09 158.689 L2045.19 138.412 L2049.71 138.412 L2038.32 166.745 Z" fill="#000000" fill-rule="evenodd" fill-opacity="1"></path><polyline clip-path="url(#clip870)" style="stroke:#e26f46; stroke-linecap:butt; stroke-linejoin:round; stroke-width:4; stroke-opacity:1; fill:none" points="
  1725.99,198.898 1866.4,198.898 
  "></polyline>
<path clip-path="url(#clip870)" d="M1889.8 181.618 L1911.65 181.618 L1911.65 185.553 L1894.48 185.553 L1894.48 195.784 L1910.93 195.784 L1910.93 199.719 L1894.48 199.719 L1894.48 212.242 L1912.07 212.242 L1912.07 216.178 L1889.8 216.178 L1889.8 181.618 Z" fill="#000000" fill-rule="evenodd" fill-opacity="1"></path><path clip-path="url(#clip870)" d="M1941.12 200.529 L1941.12 216.178 L1936.86 216.178 L1936.86 200.668 Q1936.86 196.988 1935.42 195.159 Q1933.99 193.33 1931.12 193.33 Q1927.67 193.33 1925.68 195.53 Q1923.69 197.729 1923.69 201.525 L1923.69 216.178 L1919.41 216.178 L1919.41 190.252 L1923.69 190.252 L1923.69 194.28 Q1925.22 191.942 1927.28 190.784 Q1929.36 189.627 1932.07 189.627 Q1936.54 189.627 1938.83 192.405 Q1941.12 195.159 1941.12 200.529 Z" fill="#000000" fill-rule="evenodd" fill-opacity="1"></path><path clip-path="url(#clip870)" d="M1971.79 202.15 L1971.79 204.233 L1952.21 204.233 Q1952.48 208.631 1954.85 210.946 Q1957.23 213.238 1961.47 213.238 Q1963.92 213.238 1966.21 212.636 Q1968.53 212.034 1970.79 210.83 L1970.79 214.858 Q1968.5 215.83 1966.1 216.34 Q1963.69 216.849 1961.21 216.849 Q1955.01 216.849 1951.37 213.238 Q1947.76 209.627 1947.76 203.469 Q1947.76 197.104 1951.19 193.377 Q1954.64 189.627 1960.47 189.627 Q1965.7 189.627 1968.73 193.006 Q1971.79 196.363 1971.79 202.15 M1967.53 200.9 Q1967.48 197.405 1965.56 195.321 Q1963.67 193.238 1960.52 193.238 Q1956.95 193.238 1954.8 195.252 Q1952.67 197.266 1952.35 200.923 L1967.53 200.9 Z" fill="#000000" fill-rule="evenodd" fill-opacity="1"></path><path clip-path="url(#clip870)" d="M1993.8 194.233 Q1993.09 193.817 1992.23 193.631 Q1991.4 193.423 1990.38 193.423 Q1986.77 193.423 1984.82 195.784 Q1982.9 198.122 1982.9 202.52 L1982.9 216.178 L1978.62 216.178 L1978.62 190.252 L1982.9 190.252 L1982.9 194.28 Q1984.24 191.918 1986.4 190.784 Q1988.55 189.627 1991.63 189.627 Q1992.07 189.627 1992.6 189.696 Q1993.13 189.743 1993.78 189.858 L1993.8 194.233 Z" fill="#000000" fill-rule="evenodd" fill-opacity="1"></path><path clip-path="url(#clip870)" d="M2014.5 202.914 Q2014.5 198.284 2012.58 195.738 Q2010.68 193.192 2007.23 193.192 Q2003.8 193.192 2001.88 195.738 Q1999.98 198.284 1999.98 202.914 Q1999.98 207.52 2001.88 210.066 Q2003.8 212.613 2007.23 212.613 Q2010.68 212.613 2012.58 210.066 Q2014.5 207.52 2014.5 202.914 M2018.76 212.96 Q2018.76 219.58 2015.82 222.798 Q2012.88 226.039 2006.81 226.039 Q2004.57 226.039 2002.58 225.691 Q2000.59 225.367 1998.71 224.673 L1998.71 220.529 Q2000.59 221.548 2002.42 222.034 Q2004.24 222.52 2006.14 222.52 Q2010.33 222.52 2012.41 220.321 Q2014.5 218.145 2014.5 213.724 L2014.5 211.617 Q2013.18 213.909 2011.12 215.043 Q2009.06 216.178 2006.19 216.178 Q2001.42 216.178 1998.5 212.543 Q1995.59 208.909 1995.59 202.914 Q1995.59 196.895 1998.5 193.261 Q2001.42 189.627 2006.19 189.627 Q2009.06 189.627 2011.12 190.761 Q2013.18 191.895 2014.5 194.187 L2014.5 190.252 L2018.76 190.252 L2018.76 212.96 Z" fill="#000000" fill-rule="evenodd" fill-opacity="1"></path><path clip-path="url(#clip870)" d="M2038.32 218.585 Q2036.51 223.215 2034.8 224.627 Q2033.09 226.039 2030.22 226.039 L2026.81 226.039 L2026.81 222.474 L2029.31 222.474 Q2031.07 222.474 2032.04 221.64 Q2033.02 220.807 2034.2 217.705 L2034.96 215.761 L2024.48 190.252 L2028.99 190.252 L2037.09 210.529 L2045.19 190.252 L2049.71 190.252 L2038.32 218.585 Z" fill="#000000" fill-rule="evenodd" fill-opacity="1"></path><path clip-path="url(#clip870)" d="M2075.52 185.46 L2075.52 212.335 L2081.16 212.335 Q2088.32 212.335 2091.63 209.094 Q2094.96 205.854 2094.96 198.863 Q2094.96 191.918 2091.63 188.701 Q2088.32 185.46 2081.16 185.46 L2075.52 185.46 M2070.84 181.618 L2080.45 181.618 Q2090.49 181.618 2095.19 185.807 Q2099.89 189.974 2099.89 198.863 Q2099.89 207.798 2095.17 211.988 Q2090.45 216.178 2080.45 216.178 L2070.84 216.178 L2070.84 181.618 Z" fill="#000000" fill-rule="evenodd" fill-opacity="1"></path><path clip-path="url(#clip870)" d="M2130.91 211.247 L2130.91 201.965 L2123.27 201.965 L2123.27 198.122 L2135.54 198.122 L2135.54 212.96 Q2132.83 214.881 2129.57 215.877 Q2126.3 216.849 2122.6 216.849 Q2114.5 216.849 2109.91 212.127 Q2105.35 207.381 2105.35 198.932 Q2105.35 190.46 2109.91 185.738 Q2114.5 180.993 2122.6 180.993 Q2125.98 180.993 2129.01 181.826 Q2132.07 182.659 2134.64 184.28 L2134.64 189.256 Q2132.04 187.057 2129.13 185.946 Q2126.21 184.835 2122.99 184.835 Q2116.65 184.835 2113.46 188.377 Q2110.28 191.918 2110.28 198.932 Q2110.28 205.923 2113.46 209.465 Q2116.65 213.006 2122.99 213.006 Q2125.47 213.006 2127.41 212.59 Q2129.36 212.15 2130.91 211.247 Z" fill="#000000" fill-rule="evenodd" fill-opacity="1"></path><path clip-path="url(#clip870)" d="M2164.8 182.752 L2164.8 187.312 Q2162.14 186.039 2159.78 185.414 Q2157.41 184.789 2155.22 184.789 Q2151.4 184.789 2149.31 186.27 Q2147.25 187.752 2147.25 190.483 Q2147.25 192.775 2148.62 193.955 Q2150.01 195.113 2153.85 195.83 L2156.67 196.409 Q2161.9 197.405 2164.38 199.928 Q2166.88 202.428 2166.88 206.641 Q2166.88 211.664 2163.5 214.256 Q2160.15 216.849 2153.64 216.849 Q2151.19 216.849 2148.41 216.293 Q2145.66 215.738 2142.69 214.65 L2142.69 209.835 Q2145.54 211.432 2148.27 212.242 Q2151 213.053 2153.64 213.053 Q2157.65 213.053 2159.82 211.479 Q2162 209.904 2162 206.988 Q2162 204.442 2160.42 203.006 Q2158.87 201.571 2155.31 200.854 L2152.46 200.298 Q2147.23 199.256 2144.89 197.034 Q2142.55 194.812 2142.55 190.854 Q2142.55 186.27 2145.77 183.631 Q2149.01 180.993 2154.68 180.993 Q2157.11 180.993 2159.64 181.432 Q2162.16 181.872 2164.8 182.752 Z" fill="#000000" fill-rule="evenodd" fill-opacity="1"></path><path clip-path="url(#clip870)" d="M2174.17 181.618 L2196.03 181.618 L2196.03 185.553 L2178.85 185.553 L2178.85 195.784 L2195.31 195.784 L2195.31 199.719 L2178.85 199.719 L2178.85 212.242 L2196.44 212.242 L2196.44 216.178 L2174.17 216.178 L2174.17 181.618 Z" fill="#000000" fill-rule="evenodd" fill-opacity="1"></path><path clip-path="url(#clip870)" d="M2204.13 181.618 L2211.09 181.618 L2219.91 205.136 L2228.78 181.618 L2235.75 181.618 L2235.75 216.178 L2231.19 216.178 L2231.19 185.83 L2222.27 209.534 L2217.58 209.534 L2208.66 185.83 L2208.66 216.178 L2204.13 216.178 L2204.13 181.618 Z" fill="#000000" fill-rule="evenodd" fill-opacity="1"></path></svg>